<?xml version="1.0" encoding="UTF-8"?>
<svg xmlns="http://www.w3.org/2000/svg" viewBox="0 0 48 48" width="48" height="48">
  <defs>
    <linearGradient id="g" x1="0%" x2="100%" y1="0%" y2="100%">
      <stop offset="0" stop-color="#4285F4"/>
      <stop offset="0.33" stop-color="#34A853"/>
      <stop offset="0.66" stop-color="#FBBC05"/>
      <stop offset="1" stop-color="#EA4335"/>
    </linearGradient>
  </defs>
  <rect width="48" height="48" rx="8" fill="#ffffff"/>
  <path d="M24 12c3.866 0 7.17 1.456 9.61 3.83l4.95-4.95C35.97 7.18 30.33 5 24 5 14.98 5 7.59 9.86 4.12 17.09l5.67 4.4C11.84 14.36 17.43 12 24 12z" fill="#4285F4"/>
  <path d="M43.83 20.46c.3 1.67.3 3.43 0 5.1-.3 1.66-1.02 3.2-1.98 4.52l-5.03-3.9c.54-1.02.86-2.18.86-3.4s-.32-2.38-.86-3.4l5.01-3.9c.96 1.32 1.68 2.86 1.99 4.48z" fill="#34A853"/>
  <path d="M24 43c6.33 0 11.97-2.18 16.56-5.88l-4.95-4.95C31.17 35.54 27.866 37 24 37c-6.57 0-12.16-2.36-14.21-5.49L4.12 29.91C7.59 37.14 14.98 42 24 42z" fill="#FBBC05"/>
  <path d="M4.17 27.54C3.2 26.22 2.48 24.68 2.18 23.02c-.3-1.67-.3-3.43 0-5.1.3-1.66 1.02-3.2 1.98-4.52l5.01 3.9C9.32 18.62 8.99 19.78 8.99 21s.33 2.38.86 3.4l-5.69 3.14z" fill="#EA4335"/>
</svg>
